<mxfile host="app.diagrams.net" modified="2024-03-19T16:35:36.788Z" agent="Mozilla/5.0 (Windows NT 10.0; Win64; x64) AppleWebKit/537.36 (KHTML, like Gecko) Chrome/122.0.0.0 Safari/537.36 Edg/122.0.0.0" etag="ViBcqr0QQ7hBkCUuaJy3" version="22.1.17" type="github">
  <diagram name="Page-1" id="fuIp1_rRdpLn5pxj-nnq">
    <mxGraphModel dx="1989" dy="724" grid="0" gridSize="10" guides="1" tooltips="1" connect="1" arrows="1" fold="1" page="0" pageScale="1" pageWidth="850" pageHeight="1100" background="#ffffff" math="0" shadow="0">
      <root>
        <mxCell id="0" />
        <mxCell id="1" parent="0" />
        <mxCell id="EC3LS4kN1auIx0L2O-ET-1" value="" style="verticalLabelPosition=bottom;verticalAlign=top;html=1;shadow=0;dashed=0;strokeWidth=1;shape=mxgraph.android.phone2;strokeColor=#c0c0c0;" vertex="1" parent="1">
          <mxGeometry x="100" y="240" width="120" height="260" as="geometry" />
        </mxCell>
        <mxCell id="EC3LS4kN1auIx0L2O-ET-2" value="" style="verticalLabelPosition=bottom;verticalAlign=top;html=1;shadow=0;dashed=0;strokeWidth=1;shape=mxgraph.android.phone2;strokeColor=#c0c0c0;" vertex="1" parent="1">
          <mxGeometry x="1116" y="225" width="140" height="290" as="geometry" />
        </mxCell>
        <mxCell id="EC3LS4kN1auIx0L2O-ET-3" value="" style="image;aspect=fixed;perimeter=ellipsePerimeter;html=1;align=center;shadow=0;dashed=0;spacingTop=3;image=img/lib/active_directory/generic_server.svg;" vertex="1" parent="1">
          <mxGeometry x="678.16" y="276.36" width="96.68" height="172.64" as="geometry" />
        </mxCell>
        <mxCell id="EC3LS4kN1auIx0L2O-ET-4" value="" style="image;aspect=fixed;perimeter=ellipsePerimeter;html=1;align=center;shadow=0;dashed=0;spacingTop=3;image=img/lib/active_directory/generic_server.svg;" vertex="1" parent="1">
          <mxGeometry x="348" y="104" width="43" height="76.79" as="geometry" />
        </mxCell>
        <mxCell id="EC3LS4kN1auIx0L2O-ET-19" value="" style="endArrow=classic;html=1;rounded=0;entryX=1;entryY=0.5;entryDx=0;entryDy=0;exitX=0;exitY=0.75;exitDx=0;exitDy=0;" edge="1" parent="1" source="EC3LS4kN1auIx0L2O-ET-27">
          <mxGeometry width="50" height="50" relative="1" as="geometry">
            <mxPoint x="425" y="459" as="sourcePoint" />
            <mxPoint x="40.999999999997726" y="568.5" as="targetPoint" />
          </mxGeometry>
        </mxCell>
        <mxCell id="EC3LS4kN1auIx0L2O-ET-21" value="" style="endArrow=classic;html=1;rounded=0;entryX=0.012;entryY=0.88;entryDx=0;entryDy=0;entryPerimeter=0;" edge="1" parent="1" target="EC3LS4kN1auIx0L2O-ET-1">
          <mxGeometry width="50" height="50" relative="1" as="geometry">
            <mxPoint x="13" y="555" as="sourcePoint" />
            <mxPoint x="63" y="505" as="targetPoint" />
          </mxGeometry>
        </mxCell>
        <mxCell id="EC3LS4kN1auIx0L2O-ET-22" value="" style="endArrow=classic;html=1;rounded=0;entryX=0;entryY=0.75;entryDx=0;entryDy=0;" edge="1" parent="1">
          <mxGeometry width="50" height="50" relative="1" as="geometry">
            <mxPoint x="466" y="476" as="sourcePoint" />
            <mxPoint x="843.2058063352297" y="576.0980645549234" as="targetPoint" />
          </mxGeometry>
        </mxCell>
        <mxCell id="EC3LS4kN1auIx0L2O-ET-26" value="" style="endArrow=classic;html=1;rounded=0;entryX=0.993;entryY=0.893;entryDx=0;entryDy=0;entryPerimeter=0;" edge="1" parent="1" target="EC3LS4kN1auIx0L2O-ET-2">
          <mxGeometry width="50" height="50" relative="1" as="geometry">
            <mxPoint x="865" y="553" as="sourcePoint" />
            <mxPoint x="915" y="503" as="targetPoint" />
          </mxGeometry>
        </mxCell>
        <mxCell id="EC3LS4kN1auIx0L2O-ET-27" value="Load Balancer" style="points=[[0,0],[0.25,0],[0.5,0],[0.75,0],[1,0],[1,0.25],[1,0.5],[1,0.75],[1,1],[0.75,1],[0.5,1],[0.25,1],[0,1],[0,0.75],[0,0.5],[0,0.25]];outlineConnect=0;gradientColor=none;html=1;whiteSpace=wrap;fontSize=12;fontStyle=0;container=1;pointerEvents=0;collapsible=0;recursiveResize=0;shape=mxgraph.aws4.groupCenter;grIcon=mxgraph.aws4.group_auto_scaling_group;grStroke=1;strokeColor=#D86613;fillColor=none;verticalAlign=top;align=center;fontColor=#D86613;dashed=1;spacingTop=25;" vertex="1" parent="1">
          <mxGeometry x="627" y="231" width="199" height="252" as="geometry" />
        </mxCell>
        <mxCell id="EC3LS4kN1auIx0L2O-ET-34" value="Signaling Server" style="text;html=1;align=center;verticalAlign=middle;resizable=0;points=[];autosize=1;strokeColor=none;fillColor=none;" vertex="1" parent="EC3LS4kN1auIx0L2O-ET-27">
          <mxGeometry x="46.5" y="221" width="106" height="26" as="geometry" />
        </mxCell>
        <mxCell id="EC3LS4kN1auIx0L2O-ET-29" value="" style="image;sketch=0;aspect=fixed;html=1;points=[];align=center;fontSize=12;image=img/lib/mscae/Cache_Redis_Product.svg;" vertex="1" parent="1">
          <mxGeometry x="-8" y="555" width="50" height="42" as="geometry" />
        </mxCell>
        <mxCell id="EC3LS4kN1auIx0L2O-ET-30" value="" style="image;sketch=0;aspect=fixed;html=1;points=[];align=center;fontSize=12;image=img/lib/mscae/Cache_Redis_Product.svg;" vertex="1" parent="1">
          <mxGeometry x="843" y="555" width="50" height="42" as="geometry" />
        </mxCell>
        <mxCell id="EC3LS4kN1auIx0L2O-ET-35" value="" style="image;aspect=fixed;perimeter=ellipsePerimeter;html=1;align=center;shadow=0;dashed=0;spacingTop=3;image=img/lib/active_directory/generic_server.svg;" vertex="1" parent="1">
          <mxGeometry x="381" y="297" width="43" height="76.79" as="geometry" />
        </mxCell>
        <mxCell id="EC3LS4kN1auIx0L2O-ET-36" value="STUN Server" style="text;html=1;align=center;verticalAlign=middle;resizable=0;points=[];autosize=1;strokeColor=none;fillColor=none;" vertex="1" parent="1">
          <mxGeometry x="325" y="78" width="89" height="26" as="geometry" />
        </mxCell>
        <mxCell id="EC3LS4kN1auIx0L2O-ET-37" value="TURN Server" style="text;html=1;align=center;verticalAlign=middle;resizable=0;points=[];autosize=1;strokeColor=none;fillColor=none;" vertex="1" parent="1">
          <mxGeometry x="357.5" y="263" width="90" height="26" as="geometry" />
        </mxCell>
        <mxCell id="EC3LS4kN1auIx0L2O-ET-40" value="" style="endArrow=classic;html=1;rounded=0;" edge="1" parent="1">
          <mxGeometry width="50" height="50" relative="1" as="geometry">
            <mxPoint x="213" y="246" as="sourcePoint" />
            <mxPoint x="347" y="148" as="targetPoint" />
          </mxGeometry>
        </mxCell>
        <mxCell id="EC3LS4kN1auIx0L2O-ET-42" value="" style="endArrow=classic;html=1;rounded=0;entryX=0;entryY=0.5;entryDx=0;entryDy=0;" edge="1" parent="1" target="EC3LS4kN1auIx0L2O-ET-35">
          <mxGeometry width="50" height="50" relative="1" as="geometry">
            <mxPoint x="220" y="338" as="sourcePoint" />
            <mxPoint x="354" y="240" as="targetPoint" />
          </mxGeometry>
        </mxCell>
        <mxCell id="EC3LS4kN1auIx0L2O-ET-43" value="" style="endArrow=classic;html=1;rounded=0;" edge="1" parent="1" target="EC3LS4kN1auIx0L2O-ET-27">
          <mxGeometry width="50" height="50" relative="1" as="geometry">
            <mxPoint x="391" y="150" as="sourcePoint" />
            <mxPoint x="525" y="52" as="targetPoint" />
          </mxGeometry>
        </mxCell>
      </root>
    </mxGraphModel>
  </diagram>
</mxfile>
